<svg xmlns="http://www.w3.org/2000/svg" viewBox="0 0 37.3 25.14"><path d="M5.25,19.52a16,16,0,0,1,2,1.86c1,1,1.6,1.63,2,1.93a1.32,1.32,0,0,1,.53,1,1.34,1.34,0,0,1-.4,1,1.25,1.25,0,0,1-.92.41,1.31,1.31,0,0,1-.82-.31A26.08,26.08,0,0,1,5.1,22.93a8.2,8.2,0,0,0-2.82-2.07c-.75-.27-1.12-.67-1.12-1.21s.34-.9,1-1.22a10.9,10.9,0,0,0,3-2.37q2.28-2.37,2.7-2.73A1.37,1.37,0,0,1,8.74,13a1.27,1.27,0,0,1,.93.4,1.34,1.34,0,0,1,.4,1,1.31,1.31,0,0,1-.44.93Q8.22,16.75,5.25,19.52Z" transform="translate(-1.16 -4.69)" style="fill:#fff"/><path d="M38.46,18.8a1.46,1.46,0,0,1-.54,1,51.71,51.71,0,0,1-7.31,5.68,1.47,1.47,0,0,1-.78.27,1.19,1.19,0,0,1-.91-.42,1.35,1.35,0,0,1-.39-.95,1.26,1.26,0,0,1,.57-1l5.68-4.34a26.18,26.18,0,0,1-3.22-2.65c-1.56-1.47-2.35-2.49-2.35-3.06a1.22,1.22,0,0,1,.42-.92,1.27,1.27,0,0,1,.93-.4,1.3,1.3,0,0,1,1,.5,23.07,23.07,0,0,0,6.05,5.14A1.3,1.3,0,0,1,38.46,18.8Z" transform="translate(-1.16 -4.69)" style="fill:#fff"/><path d="M26.39,6.79A2.5,2.5,0,0,0,26.55,6a1.19,1.19,0,0,0-.41-.9,1.44,1.44,0,0,0-.95-.39c-.4,0-.9.61-1.52,1.86l2.48.81Z" transform="translate(-1.16 -4.69)" style="fill:#fff"/><path d="M26,7.64l-2.5-.82-.16.36L25.89,8Z" transform="translate(-1.16 -4.69)" style="fill:#fff"/><path d="M25.85,8.1l-2.51-.83-.18.41,2.52.83Z" transform="translate(-1.16 -4.69)" style="fill:#fff"/><path d="M23.12,7.77c-.26.62-.54,1.32-.83,2.12A80.33,80.33,0,0,1,18,19c-1.39,2.62-2.49,4.82-3.29,6.62l2.53.94,1.55-3.45L22,17a57,57,0,0,0,2.8-6.26l.89-2.17Z" transform="translate(-1.16 -4.69)" style="fill:#fff"/><path d="M17.08,26.81l-2.54-.93c-.17.4-.34.79-.48,1.15v1.33l1.37.61,1.1-.95Z" transform="translate(-1.16 -4.69)" style="fill:#fff"/><path d="M14,28.55V29.6a1.84,1.84,0,0,0,.46.24l.84-.72Z" transform="translate(-1.16 -4.69)" style="fill:#fff"/></svg>